{"title":"The Host 2013 HDRiP x264 AC3-OFFLiNE","uid":8392244,"size":1610366837,"categoryP":"video","categoryS":"movies","magnet":"?xt=urn:btih:5f5d7d76d5c6702d0f46ad2a5929496f833ec6ea&amp;dn=The+Host+2013+HDRiP+x264+AC3-OFFLiNE&amp;tr=udp%3A%2F%2Ftracker.openbittorrent.com%3A80&amp;tr=udp%3A%2F%2Fopen.demonii.com%3A1337&amp;tr=udp%3A%2F%2Ftracker.coppersurfer.tk%3A6969&amp;tr=udp%3A%2F%2Fexodus.desync.com%3A6969","seeders":0,"leechers":1,"uploader":"Gh0stNet","files":3,"time":1366468505,"description":"The Host 2013 HDRiP x264 AC3-OFFLiNE\n\niMDB &lt;a href=&quot; http://www.imdb.com/title/tt1517260&quot; rel=&quot;nofollow&quot; target=&quot;_NEW&quot;&gt; http://www.imdb.com/title/tt1517260&lt;/a&gt;\n\nSource  The.Host.2013.720p.KOR.HDRip.H-KTH  -  MANY THANKX\n\nMedia Info\nThe Host 2013 HDRiP x264 AC3-OFFLiNE.mp4\nFormat                                   : MPEG-4\nFormat profile                           : Base Media\nCodec ID                                 : isom\nFile size                                : 1.50 GiB\nDuration                                 : 2h 10mn\nOverall bit rate mode                    : Variable\nOverall bit rate                         : 1 644 Kbps\nEncoded date                             : UTC 2013-04-19 11:56:26\nTagged date                              : UTC 2013-04-19 11:56:26\n\nVideo\nID                                       : 1\nFormat                                   : AVC\nFormat/Info                              : Advanced Video Codec\nFormat profile                           : &lt;a class=&quot;__cf_email__&quot; href=&quot;/cdn-cgi/l/email-protection&quot; data-cfemail=&quot;9dd5f4faf5ddd1a9b3ac&quot;&gt;[email&amp;#160;protected]&lt;/a&gt;&lt;script cf-hash='f9e31' type=&quot;text/javascript&quot;&gt;\n/* &lt;![CDATA[ */!function(){try{var t=&quot;currentScript&quot;in document?document.currentScript:function(){for(var t=document.getElementsByTagName(&quot;script&quot;),e=t.length;e--;)if(t[e].getAttribute(&quot;cf-hash&quot;))return t[e]}();if(t&amp;&amp;t.previousSibling){var e,r,n,i,c=t.previousSibling,a=c.getAttribute(&quot;data-cfemail&quot;);if(a){for(e=&quot;&quot;,r=parseInt(a.substr(0,2),16),n=2;a.length-n;n+=2)i=parseInt(a.substr(n,2),16)^r,e+=String.fromCharCode(i);e=document.createTextNode(e),c.parentNode.replaceChild(e,c)}}}catch(u){}}();/* ]]&gt; */&lt;/script&gt;\nFormat settings, CABAC                   : Yes\nFormat settings, ReFrames                : 3 frames\nCodec ID                                 : avc1\nCodec ID/Info                            : Advanced Video Coding\nDuration                                 : 2h 10mn\nBit rate mode                            : Variable\nBit rate                                 : 1 513 Kbps\nMaximum bit rate                         : 40.0 Mbps\nWidth                                    : 720 pixels\nHeight                                   : 304 pixels\nDisplay aspect ratio                     : 2.35:1\nFrame rate mode                          : Constant\nFrame rate                               : 29.970 fps\nColor space                              : YUV\nChroma subsampling                       : 4:2:0\nBit depth                                : 8 bits\nScan type                                : Progressive\nBits/(Pixel*Frame)                       : 0.231\nStream size                              : 1.38 GiB (92%)\nTitle                                    : The Host 2013 HDRiP x264 AC3-OFFLiNE\nWriting library                          : x264 core 130 r2273 b3065e6\n\nAudio\nID                                       : 2\nFormat                                   : AC-3\nFormat/Info                              : Audio Coding 3\nMode extension                           : CM (complete main)\nFormat settings, Endianness              : Big\nCodec ID                                 : ac-3\nDuration                                 : 2h 10mn\nBit rate mode                            : Constant\nBit rate                                 : 128 Kbps\nChannel(s)                               : 2 channels\nChannel positions                        : Front: L R\nSampling rate                            : 48.0 KHz\nBit depth                                : 16 bits\nCompression mode                         : Lossy\nStream size                              : 120 MiB (8%)\nTitle                                    : 2.0\nLanguage                                 : English\n\nScreens &lt;a href=&quot;\nhttp://i.imgur.com/Ve90Vd7.png&quot; rel=&quot;nofollow&quot; target=&quot;_NEW&quot;&gt;\nhttp://i.imgur.com/Ve90Vd7.png&lt;/a&gt; &lt;a href=&quot;\nhttp://i.imgur.com/ZjBGV70.png&quot; rel=&quot;nofollow&quot; target=&quot;_NEW&quot;&gt;\nhttp://i.imgur.com/ZjBGV70.png&lt;/a&gt; &lt;a href=&quot;\nhttp://i.imgur.com/4iuFnTB.png&quot; rel=&quot;nofollow&quot; target=&quot;_NEW&quot;&gt;\nhttp://i.imgur.com/4iuFnTB.png&lt;/a&gt; &lt;a href=&quot;\nhttp://i.imgur.com/i8IDN3i.png&quot; rel=&quot;nofollow&quot; target=&quot;_NEW&quot;&gt;\nhttp://i.imgur.com/i8IDN3i.png&lt;/a&gt;\n\n","torrent":{"xt":"urn:btih:5f5d7d76d5c6702d0f46ad2a5929496f833ec6ea","amp;dn":"The+Host+2013+HDRiP+x264+AC3-OFFLiNE","amp;tr":["udp%3A%2F%2Ftracker.openbittorrent.com%3A80","udp%3A%2F%2Fopen.demonii.com%3A1337","udp%3A%2F%2Ftracker.coppersurfer.tk%3A6969","udp%3A%2F%2Fexodus.desync.com%3A6969"],"infoHash":"5f5d7d76d5c6702d0f46ad2a5929496f833ec6ea","infoHashBuffer":{"type":"Buffer","data":[95,93,125,118,213,198,112,45,15,70,173,42,89,41,73,111,131,62,198,234]},"announce":[],"urlList":[]}}